# xmcd
#
# Track frame offsets:
#	150
#	25513
#	51845
#	69243
#	111110
#	130037
#	153354
#	184754
#	223679
#	247186
#
# Disc length: 3931 seconds
#
# Revision: 1
# Processed by: cddbd v1.5.2PL0 Copyright (c) Steve Scherf et al.
# Submitted via: audiograbber 1.83.01
#
DISCID=840f590a
DTITLE=The Jeff Healey Band - Live At The Cotton Club Atlanta '88
DYEAR=2017
DGENRE=Blues
TTITLE0=The Beter It Gets
TTITLE1=Further On Up The Road
TTITLE2=My Little Girl
TTITLE3=Blue Jean Blues
TTITLE4=Confidence Man
TTITLE5=I Need To Be Loved
TTITLE6=White Room
TTITLE7=See The Light
TTITLE8=Hideaway
TTITLE9=All Alog The Watchtower
EXTD=
EXTT0=
EXTT1=
EXTT2=
EXTT3=
EXTT4=
EXTT5=
EXTT6=
EXTT7=
EXTT8=
EXTT9=
PLAYORDER=
